<svg xmlns="http://www.w3.org/2000/svg" width="1400" height="560" viewBox="0 0 1400 560">
<defs><style>
.bg{fill:#f8fafc;}
.panel{fill:#ffffff;stroke:#cbd5e1;stroke-width:2;rx:18;ry:18;}
.title{font:700 28px "DejaVu Sans", sans-serif;fill:#0f172a;}
.label{font:700 18px "DejaVu Sans", sans-serif;fill:#1e293b;}
.body{font:400 15px "DejaVu Sans", sans-serif;fill:#334155;}
.small{font:400 13px "DejaVu Sans", sans-serif;fill:#64748b;}
.cpu{fill:#dbeafe;stroke:#2563eb;stroke-width:2;}
.gpu{fill:#dcfce7;stroke:#16a34a;stroke-width:2;}
.warn{fill:#fef3c7;stroke:#d97706;stroke-width:2;}
.hot{fill:#fee2e2;stroke:#dc2626;stroke-width:2;}
.accent{fill:#ede9fe;stroke:#7c3aed;stroke-width:2;}
.line{stroke:#94a3b8;stroke-width:2;}
.dash{stroke:#94a3b8;stroke-width:2;stroke-dasharray:7 6;}
.arrow{stroke:#0f172a;stroke-width:2.5;marker-end:url(#arrow);fill:none;}
.grid{stroke:#e2e8f0;stroke-width:1.5;}
</style>
<marker id="arrow" markerWidth="8" markerHeight="8" refX="6" refY="3" orient="auto"><path d="M0,0 L6,3 L0,6 z" fill="#0f172a"/></marker></defs>
<rect class="bg" x="0" y="0" width="1400" height="560"/>

<text class="title" x="44" y="48">Async Copy: global -&gt; register -&gt; shared vs cp.async</text>
<text class="body" x="44" y="78">同步路径先进寄存器再写 shared；cp.async 让 global 到 shared 的搬运协议显式化，更容易减少中转与重叠等待。</text>

<rect class="panel" x="40" y="110" width="630" height="400"/>
<text class="label" x="72" y="150">sync</text>
<rect class="cpu" x="80" y="220" width="130" height="64" rx="12" ry="12"/><text class="body" x="120" y="258">global</text>
<rect class="warn" x="280" y="220" width="130" height="64" rx="12" ry="12"/><text class="body" x="315" y="258">register</text>
<rect class="gpu" x="480" y="220" width="130" height="64" rx="12" ry="12"/><text class="body" x="523" y="258">shared</text>
<line class="arrow" x1="210" y1="252" x2="280" y2="252"/><line class="arrow" x1="410" y1="252" x2="480" y2="252"/>
<text class="small" x="136" y="340">load + store，两条路径都要走</text>

<rect class="panel" x="710" y="110" width="650" height="400"/>
<text class="label" x="742" y="150">async</text>
<rect class="cpu" x="760" y="220" width="130" height="64" rx="12" ry="12"/><text class="body" x="800" y="258">global</text>
<rect class="accent" x="1090" y="220" width="130" height="64" rx="12" ry="12"/><text class="body" x="1133" y="258">shared</text>
<line class="arrow" x1="890" y1="252" x2="1090" y2="252"/>
<text class="body" x="943" y="238">cp.async</text>
<text class="small" x="798" y="340">显式 commit / wait；拷贝粒度越大，收益通常越明显。</text>

</svg>
