<svg xmlns="http://www.w3.org/2000/svg" width="1400" height="560" viewBox="0 0 1400 560">
<defs><style>
.bg{fill:#f8fafc;}
.panel{fill:#ffffff;stroke:#cbd5e1;stroke-width:2;rx:18;ry:18;}
.title{font:700 28px "DejaVu Sans", sans-serif;fill:#0f172a;}
.label{font:700 18px "DejaVu Sans", sans-serif;fill:#1e293b;}
.body{font:400 15px "DejaVu Sans", sans-serif;fill:#334155;}
.small{font:400 13px "DejaVu Sans", sans-serif;fill:#64748b;}
.cpu{fill:#dbeafe;stroke:#2563eb;stroke-width:2;}
.gpu{fill:#dcfce7;stroke:#16a34a;stroke-width:2;}
.warn{fill:#fef3c7;stroke:#d97706;stroke-width:2;}
.hot{fill:#fee2e2;stroke:#dc2626;stroke-width:2;}
.accent{fill:#ede9fe;stroke:#7c3aed;stroke-width:2;}
.line{stroke:#94a3b8;stroke-width:2;}
.dash{stroke:#94a3b8;stroke-width:2;stroke-dasharray:7 6;}
.arrow{stroke:#0f172a;stroke-width:2.5;marker-end:url(#arrow);fill:none;}
.grid{stroke:#e2e8f0;stroke-width:1.5;}
</style>
<marker id="arrow" markerWidth="8" markerHeight="8" refX="6" refY="3" orient="auto"><path d="M0,0 L6,3 L0,6 z" fill="#0f172a"/></marker></defs>
<rect class="bg" x="0" y="0" width="1400" height="560"/>

<text class="title" x="44" y="48">Shared Memory GEMM: Tile Reuse and Padding</text>
<text class="body" x="44" y="78">按 Best Practices Guide 的矩阵图思路重画：先看 tile 如何减少 global load，再看 C=AAT 里 transpose tile 为什么需要 +1 padding。</text>

<rect class="panel" x="40" y="110" width="430" height="400"/>
<text class="label" x="70" y="150">C = AB: one A tile, one B tile, one C tile</text>
<rect x="78" y="206" width="92" height="210" fill="#e2e8f0" stroke="#94a3b8" stroke-width="2"/>
<rect x="78" y="272" width="92" height="64" fill="#bfdbfe" stroke="#2563eb" stroke-width="2"/>
<text class="body" x="112" y="430">A</text>
<rect x="216" y="206" width="210" height="92" fill="#e2e8f0" stroke="#94a3b8" stroke-width="2"/>
<rect x="284" y="206" width="72" height="92" fill="#bbf7d0" stroke="#16a34a" stroke-width="2"/>
<text class="body" x="315" y="320">B</text>
<rect x="226" y="330" width="150" height="86" fill="#e2e8f0" stroke="#94a3b8" stroke-width="2"/>
<rect x="274" y="356" width="70" height="44" fill="#fde68a" stroke="#d97706" stroke-width="2"/>
<text class="body" x="296" y="430">C</text>
<text class="body" x="182" y="262">x</text>
<text class="body" x="186" y="378">=</text>
<line class="arrow" x1="170" y1="302" x2="262" y2="378"/>
<line class="arrow" x1="320" y1="298" x2="320" y2="352"/>
<text class="small" x="70" y="474">一个 block 先把 A/B 的 tile 搬进 shared，tile 内元素在 dot-product 中被反复复用。</text>

<rect class="panel" x="495" y="110" width="410" height="400"/>
<text class="label" x="525" y="150">C = AAT: strided load becomes tile transpose</text>
<rect x="540" y="214" width="110" height="188" fill="#e2e8f0" stroke="#94a3b8" stroke-width="2"/>
<rect x="540" y="260" width="110" height="52" fill="#bfdbfe" stroke="#2563eb" stroke-width="2"/>
<text class="body" x="588" y="430">A</text>
<rect x="706" y="214" width="110" height="188" fill="#e2e8f0" stroke="#94a3b8" stroke-width="2"/>
<rect x="744" y="214" width="34" height="188" fill="#fecaca" stroke="#dc2626" stroke-width="2"/>
<text class="body" x="732" y="430">A^T view</text>
<line class="arrow" x1="652" y1="286" x2="744" y2="286"/>
<text class="small" x="528" y="474">baseline 里第二个操作数按列取，warp 同拍地址跨很大；shared tile 先按 coalesced 方式搬入，再在片上转置使用。</text>

<rect class="panel" x="930" y="110" width="430" height="400"/>
<text class="label" x="960" y="150">Padding removes column-wise bank conflict</text>
<rect x="972" y="212" width="128" height="128" fill="#fef3c7" stroke="#d97706" stroke-width="2"/>
<line class="grid" x1="1004" y1="212" x2="1004" y2="340"/><line class="grid" x1="1036" y1="212" x2="1036" y2="340"/><line class="grid" x1="1068" y1="212" x2="1068" y2="340"/>
<line class="grid" x1="972" y1="244" x2="1100" y2="244"/><line class="grid" x1="972" y1="276" x2="1100" y2="276"/><line class="grid" x1="972" y1="308" x2="1100" y2="308"/>
<rect x="1010" y="212" width="18" height="128" fill="#fca5a5" opacity="0.75"/>
<text class="small" x="982" y="366">32 x 32</text>
<text class="small" x="978" y="388">同列访问更容易映射到重复 bank</text>

<rect x="1170" y="212" width="144" height="128" fill="#ede9fe" stroke="#7c3aed" stroke-width="2"/>
<line class="grid" x1="1202" y1="212" x2="1202" y2="340"/><line class="grid" x1="1234" y1="212" x2="1234" y2="340"/><line class="grid" x1="1266" y1="212" x2="1266" y2="340"/><line class="grid" x1="1298" y1="212" x2="1298" y2="340"/>
<line class="grid" x1="1170" y1="244" x2="1314" y2="244"/><line class="grid" x1="1170" y1="276" x2="1314" y2="276"/><line class="grid" x1="1170" y1="308" x2="1314" y2="308"/>
<rect x="1278" y="212" width="20" height="128" fill="#c4b5fd" opacity="0.85"/>
<text class="small" x="1200" y="366">32 x 33</text>
<text class="small" x="1168" y="388">+1 列把下一行起点错开，列访问不再整齐撞同一 bank</text>

</svg>
